<?xml version="1.0" standalone="no"?>
<!DOCTYPE svg PUBLIC "-//W3C//DTD SVG 20010904//EN"
 "http://www.w3.org/TR/2001/REC-SVG-20010904/DTD/svg10.dtd">
<svg version="1.0" xmlns="http://www.w3.org/2000/svg"
 width="900.000000pt" height="900.000000pt" viewBox="0 0 900.000000 900.000000"
 preserveAspectRatio="xMidYMid meet">
<metadata>
Created by potrace 1.10, written by Peter Selinger 2001-2011
</metadata>
<g transform="translate(0.000000,900.000000) scale(0.100000,-0.100000)"
fill="#000000" stroke="none">
<path d="M2200 8054 c-217 -23 -376 -81 -516 -186 -184 -140 -296 -306 -354
-528 -19 -74 -20 -124 -20 -2850 0 -2726 1 -2776 20 -2850 57 -218 174 -391
358 -531 109 -83 243 -139 407 -170 99 -20 928 -20 1035 -1 164 30 300 86 416
174 185 140 291 300 355 533 18 68 19 152 19 2845 0 2693 -1 2777 -19 2845
-40 146 -91 253 -167 350 -117 148 -294 274 -454 321 -145 44 -172 46 -615 49
-236 1 -446 1 -465 -1z"/>
<path d="M5950 8054 c-217 -23 -376 -81 -516 -186 -186 -141 -294 -303 -355
-532 -18 -69 -19 -153 -19 -2846 0 -2693 1 -2777 19 -2846 26 -97 68 -200 102
-252 16 -24 29 -46 29 -49 0 -3 15 -24 34 -47 167 -201 347 -308 601 -357 100
-20 940 -20 1040 0 220 42 388 130 533 280 51 53 132 162 132 177 0 4 6 15 14
23 19 22 64 139 87 225 18 69 19 153 19 2846 0 2693 -1 2777 -19 2846 -59 221
-172 391 -349 528 -73 56 -193 119 -272 142 -145 44 -172 46 -615 49 -236 1
-446 1 -465 -1z"/>
</g>
</svg>
