<?xml version="1.0" standalone="no"?>
<!DOCTYPE svg PUBLIC "-//W3C//DTD SVG 20010904//EN"
 "http://www.w3.org/TR/2001/REC-SVG-20010904/DTD/svg10.dtd">
<svg version="1.0" xmlns="http://www.w3.org/2000/svg"
 width="900.000000pt" height="900.000000pt" viewBox="0 0 900.000000 900.000000"
 preserveAspectRatio="xMidYMid meet">
<metadata>
Created by potrace 1.10, written by Peter Selinger 2001-2011
</metadata>
<g transform="translate(0.000000,900.000000) scale(0.100000,-0.100000)"
fill="#ffffff" stroke="none">
<path d="M1105 8991 c7 -13 -27 -31 -58 -31 -14 0 -38 -7 -53 -15 -16 -8 -36
-15 -45 -15 -9 0 -22 -7 -29 -15 -7 -8 -18 -15 -26 -15 -55 0 -304 -247 -304
-302 0 -6 -6 -19 -13 -27 -7 -9 -21 -36 -31 -61 -10 -25 -24 -58 -31 -75 -16
-39 -32 -99 -53 -205 -15 -78 -16 -372 -16 -3740 1 -3311 2 -3663 17 -3740 19
-102 35 -165 52 -205 7 -16 21 -50 31 -75 10 -25 24 -52 31 -61 7 -8 13 -21
13 -27 0 -55 249 -302 304 -302 8 0 19 -7 26 -15 7 -8 19 -15 27 -15 8 0 29
-6 46 -14 55 -24 97 -29 262 -29 179 0 238 9 395 64 43 14 283 133 325 159 17
11 39 24 50 30 11 5 27 14 35 19 8 6 51 31 95 56 44 25 87 50 95 55 8 6 26 15
39 20 13 6 35 19 50 29 14 10 49 31 76 45 28 15 73 41 100 57 28 17 64 37 80
45 17 8 44 23 60 34 17 11 39 24 50 29 11 5 37 21 58 35 21 14 44 26 52 26 8
0 17 5 20 11 4 5 17 15 28 20 12 5 36 18 52 29 17 11 39 24 51 29 17 8 119 66
174 101 8 5 35 20 60 32 25 13 61 34 80 47 19 12 44 27 55 32 11 5 27 13 35
19 27 17 172 100 175 100 2 0 24 14 48 30 25 17 48 30 52 30 6 0 130 71 175
100 8 6 25 14 37 20 19 8 97 53 168 98 11 7 32 17 48 23 15 6 27 14 27 19 0 4
8 10 18 13 9 3 44 22 77 41 33 20 67 39 75 43 18 8 158 89 180 103 8 6 24 15
35 20 11 6 34 19 50 29 17 11 50 30 75 42 25 13 64 36 86 51 23 15 45 28 48
28 4 0 52 27 107 60 55 33 103 60 108 60 4 0 26 12 47 28 21 15 61 38 87 52
27 14 56 30 65 35 10 6 60 35 112 65 52 30 104 60 115 67 11 7 30 17 42 22 11
5 24 15 28 20 3 6 12 11 20 11 8 0 31 12 52 26 21 14 47 30 58 35 11 5 34 18
50 29 17 11 44 26 60 34 17 8 53 29 80 45 28 17 59 35 70 41 11 6 36 20 55 31
19 12 55 32 80 46 53 29 71 39 128 76 24 15 45 27 48 27 5 0 133 74 174 100 8
6 24 14 36 19 11 5 50 27 85 48 35 22 71 42 79 46 8 4 38 21 65 38 28 16 64
37 80 45 17 8 44 23 60 34 17 11 39 24 50 29 11 5 37 21 58 35 21 14 44 26 52
26 8 0 17 5 20 11 4 5 17 14 28 20 23 9 31 14 105 62 24 15 47 27 52 27 5 0
26 12 47 26 21 14 47 30 58 35 11 5 27 13 35 18 8 6 51 31 95 56 44 25 87 50
95 55 8 6 22 13 30 17 8 4 48 26 88 50 41 24 76 43 78 43 2 0 23 12 47 27 23
15 62 38 87 51 74 41 94 52 125 72 17 11 39 24 50 30 11 6 34 19 50 30 17 11
37 23 45 27 72 32 323 267 363 339 7 12 29 50 50 83 20 34 37 69 37 77 0 9 6
28 14 42 28 56 41 129 41 242 0 113 -13 186 -41 242 -8 14 -14 33 -14 42 0 13
-22 52 -83 151 -27 45 -52 74 -120 144 -67 68 -213 189 -247 204 -8 4 -28 16
-45 27 -16 11 -39 24 -50 30 -11 6 -33 19 -50 30 -31 20 -51 31 -125 72 -25
13 -64 36 -87 51 -24 15 -45 27 -47 27 -4 0 -147 81 -176 100 -8 6 -22 13 -30
17 -14 6 -147 83 -180 104 -8 5 -24 13 -35 18 -11 5 -37 21 -58 35 -21 14 -42
26 -47 26 -5 0 -28 12 -52 28 -74 47 -82 52 -105 61 -11 6 -24 15 -28 20 -3 6
-12 11 -20 11 -8 0 -31 12 -52 26 -21 14 -47 30 -58 35 -11 5 -33 18 -50 29
-16 11 -43 26 -60 34 -16 8 -52 29 -80 45 -27 17 -57 34 -65 38 -8 4 -44 24
-79 46 -35 21 -74 43 -85 48 -12 5 -28 13 -36 19 -39 25 -168 100 -173 100 -3
0 -25 12 -49 28 -57 36 -75 46 -128 75 -25 14 -61 34 -80 46 -19 11 -44 25
-55 31 -11 6 -42 24 -70 41 -27 16 -63 37 -80 45 -16 8 -43 23 -60 34 -16 11
-39 24 -50 29 -11 5 -37 21 -58 35 -21 14 -44 26 -52 26 -8 0 -17 5 -20 11 -4
5 -17 15 -28 20 -12 5 -38 19 -57 31 -19 11 -53 31 -75 42 -36 20 -83 48 -140
83 -11 7 -40 23 -65 35 -25 13 -63 35 -84 50 -21 16 -43 28 -47 28 -5 0 -53
27 -108 60 -55 33 -103 60 -107 60 -3 0 -25 13 -48 28 -22 15 -61 38 -86 51
-25 12 -58 31 -75 42 -16 10 -39 23 -50 29 -11 6 -29 16 -40 23 -11 7 -52 30
-90 52 -39 22 -79 45 -90 52 -11 7 -27 15 -35 19 -15 7 -151 86 -180 105 -8 5
-24 13 -36 18 -12 5 -46 26 -77 45 -31 20 -67 41 -79 46 -13 6 -30 14 -38 20
-45 29 -169 100 -175 100 -4 0 -27 14 -52 30 -24 17 -46 30 -48 30 -3 0 -148
83 -175 100 -8 6 -24 14 -35 19 -11 5 -36 20 -55 32 -19 13 -55 34 -80 47 -25
12 -52 27 -60 32 -55 35 -157 93 -174 101 -12 5 -34 18 -51 29 -16 11 -40 24
-52 29 -11 5 -24 15 -28 20 -3 6 -12 11 -20 11 -8 0 -31 12 -52 26 -21 14 -47
30 -58 35 -11 5 -33 18 -50 29 -16 11 -43 26 -60 34 -16 8 -52 28 -80 45 -27
16 -72 42 -100 57 -27 14 -62 35 -76 45 -15 10 -37 23 -50 29 -13 5 -31 14
-39 20 -8 5 -51 30 -95 55 -44 25 -87 50 -95 56 -8 5 -24 14 -35 19 -11 6 -33
19 -50 30 -42 26 -282 145 -325 159 -62 22 -134 42 -165 47 -64 11 -75 15 -75
29 0 13 -25 15 -156 15 -95 0 -153 -4 -149 -9z"/>
</g>
</svg>
